<svg xml:space="preserve" viewBox="0 0 100 100" y="0" x="0" xmlns="http://www.w3.org/2000/svg" id="圖層_1" version="1.1" preserveAspectRatio="xMidYMid" width="200" height="200" xmlns:xlink="http://www.w3.org/1999/xlink" style="margin-top:0px;margin-right:0px;margin-bottom:0px;margin-left:0px;display:block;shape-rendering:auto;background-position-x:0%;background-position-y:0%;background-size:auto;background-origin:padding-box;background-clip:border-box;background:scroll rgb(255, 255, 255) none  repeat;width:200px;height:200px;;animation:none"><g class="ldl-scale" style="transform-origin:50px 50px;transform:matrix(0.8, 0, 0, 0.8, 0, 0);;animation:none"><g class="ldl-ani"><g class="ldl-layer"><g class="ldl-ani" style="transform:matrix(1, 0, 0, 1, 0, 0);transform-box:view-box;animation-duration:1s;animation-timing-function:linear;animation-delay:-0.75s;animation-iteration-count:infinite;animation-direction:normal;animation-fill-mode:forwards;animation-play-state:paused;animation-name:animate;animation-timeline:auto;animation-range-start:normal;animation-range-end:normal;transform-origin:50px 50px;;animation:none"><path fill="#d96d6d" d="M77.434 35.505c-4.157-4.488-9.643-7.22-15.66-7.22-4.857 0-9.369 1.779-13.115 4.825-3.746-3.046-8.258-4.825-13.115-4.825-12.979 0-23.5 12.696-23.5 28.357C12.043 72.304 22.565 85 35.543 85c4.857 0 13.115-3.29 13.115-3.29s3.307 1.316 6.966 2.283c2.124.562 4.366 1.007 6.15 1.007 12.979 0 23.5-12.696 23.5-28.357 0-8.401-3.03-15.946-7.84-21.138z" style="stroke-width:1px;fill:rgb(217, 109, 109);;animation:none"></path></g></g>
<g class="ldl-layer"><g class="ldl-ani" style="transform:matrix(1, 0, 0, 1, 0, 0);transform-box:view-box;animation-duration:1s;animation-timing-function:linear;animation-delay:-1s;animation-iteration-count:infinite;animation-direction:normal;animation-fill-mode:forwards;animation-play-state:paused;animation-name:animate;animation-timeline:auto;animation-range-start:normal;animation-range-end:normal;transform-origin:50px 50px;;animation:none"><path fill="#009245" d="M70.71 22.735l-18.069 1.856c.955-3.165 2.903-6.062 5.527-8.007a3 3 0 1 0-3.572-4.82c-4.249 3.148-7.169 7.9-8.198 13.051-5.435-.54-18.355-2.08-18.355-2.08l13 9.551s-4.051 11.996-2.692 12.522 10.308-7.367 10.308-7.367l10.718 7.392-2.333-12.547 13.666-9.551z" style="stroke-width:1px;fill:rgb(0, 146, 69);;animation:none"></path></g></g>
<metadata xmlns:d="https://loading.io/stock/"></metadata></g></g>
<STYLE type="text/css">@keyframes animate { 0.00% {animation-timing-function: cubic-bezier(0.33,0.00,0.67,0.00);transform: translate(0.00px,0.00px) rotate(0.00deg) scale(1.00, 1.00) skew(0deg, 0.00deg) ;opacity: 1.00;}50.00% {animation-timing-function: cubic-bezier(0.33,0.00,0.67,0.00);transform: translate(0.00px,0.00px) rotate(0.00deg) ;}100.00% {animation-timing-function: cubic-bezier(0.33,0.00,0.67,0.00);transform: translate(0.00px,0.00px) rotate(0.00deg) ;} }</STYLE><!-- [ldio] generated by https://loading.io --></svg>